# xmcd CD database file
#
# Track frame offsets:
#	151
#	14034
#	25613
#	37034
#	49685
#	62795
#	77287
#	90394
#	101880
#	115535
#	128512
#	142006
#	155137
#	167660
#	180363
#	191715
#	204123
#	214876
#	227015
#	238842
#
# Disc length: 3347 seconds
#
# Revision: 0
# Processed by: cddbd v1.5.2PL0 Copyright (c) Steve Scherf et al.
# Submitted via: CDex 1.70beta2
#
DISCID=070d1114
DTITLE=Django Reinhardt - Django Reinhardt Rhythm and Swing(Disc7 1938)
DYEAR=1938
DGENRE=Jazz
TTITLE0=Black and White
TTITLE1=Stompin' at Decca
TTITLE2=Tornerai
TTITLE3=If I Had You
TTITLE4=It Had to Be You
TTITLE5=Nocturne
TTITLE6=Billets Doux
TTITLE7=Swing From Paris
TTITLE8=Them There Eyes
TTITLE9=Three Little Words
TTITLE10=Appel Direct
TTITLE11=The Flat Foot Floogie
TTITLE12=The Lambeth Walk
TTITLE13=Why Shouldn't I
TTITLE14=I've Got My Love to Keep Me Warm
TTITLE15=Please Be Kind
TTITLE16=I've Got My Love to Keep Me Warm
TTITLE17=Improvisation No 2
TTITLE18=Louise
TTITLE19=Improvisation No 2
EXTD=YEAR: 1938
EXTT0=
EXTT1=
EXTT2=
EXTT3=
EXTT4=
EXTT5=
EXTT6=
EXTT7=
EXTT8=
EXTT9=
EXTT10=
EXTT11=
EXTT12=
EXTT13=
EXTT14=
EXTT15=
EXTT16=
EXTT17=
EXTT18=
EXTT19=
PLAYORDER=
